<svg width="14" height="17" viewBox="0 0 14 17" fill="none" xmlns="http://www.w3.org/2000/svg">
<path d="M13.4673 10.2539C13.4673 13.8281 10.5742 16.7212 7 16.7212C3.42578 16.7212 0.532717 13.8281 0.532716 10.2539C0.532716 9.89502 0.78174 9.63867 1.14063 9.63867C1.49219 9.63867 1.71192 9.89502 1.71192 10.2466C1.71192 13.1689 4.07764 15.5347 7 15.5347C9.92237 15.5347 12.2881 13.1689 12.2881 10.2466C12.2881 7.32422 9.92236 4.95849 7 4.95849C6.44336 4.95849 5.92334 4.99512 5.49121 5.09766L7.68115 7.26562C7.79834 7.37549 7.84961 7.5293 7.84961 7.6831C7.84961 8.02002 7.60059 8.26904 7.271 8.26904C7.08789 8.26904 6.95606 8.20312 6.84619 8.10058L3.82861 5.06836C3.69678 4.94385 3.64551 4.79736 3.64551 4.62891C3.64551 4.46777 3.71143 4.30664 3.82861 4.18945L6.84619 1.12793C6.94873 1.01074 7.09521 0.952147 7.271 0.952147C7.60059 0.952147 7.84961 1.21582 7.84961 1.55273C7.84961 1.70654 7.79102 1.85303 7.68848 1.97021L5.74023 3.91113C6.12109 3.83789 6.55322 3.78662 7 3.78662C10.5742 3.78662 13.4673 6.67968 13.4673 10.2539Z" fill="white"/>
</svg>
