<svg width="18" height="15" viewBox="0 0 18 15" fill="none" xmlns="http://www.w3.org/2000/svg">
<path d="M2.66455 14.4575C1.13379 14.4575 0.364749 13.7031 0.364748 12.1943L0.364747 3.24414C0.364747 1.73535 1.13379 0.973632 2.66455 0.973632L15.3354 0.97363C16.8735 0.97363 17.6353 1.73535 17.6353 3.24414L17.6353 12.1943C17.6353 13.7031 16.8735 14.4575 15.3355 14.4575L2.66455 14.4575ZM12.5303 7.71191L16.4561 11.396L16.4561 3.31006C16.4561 2.54834 16.0459 2.15283 15.3208 2.15283L2.6792 2.15283C1.94678 2.15283 1.54395 2.54834 1.54395 3.31006L1.54395 11.396L3.72656 9.42578C4.02686 9.14746 4.3418 9.01562 4.67139 9.01562C5.01563 9.01562 5.35254 9.15478 5.66016 9.4331L7.01514 10.6562L10.3257 7.69726C10.6626 7.39697 11.0215 7.25781 11.4243 7.25781C11.8198 7.25781 12.208 7.41162 12.5303 7.71191ZM5.82129 7.78515C4.86914 7.78516 4.09277 7.00879 4.09277 6.05664C4.09277 5.11182 4.86914 4.32812 5.82129 4.32812C6.76611 4.32812 7.54248 5.11181 7.54248 6.05664C7.54248 7.00879 6.76611 7.78515 5.82129 7.78515Z" fill="white"/>
</svg>
