<svg width="317" height="99" viewBox="0 0 317 99" fill="none" xmlns="http://www.w3.org/2000/svg">
<path d="M0.800354 73.1359C0.800354 69.938 2.30639 68.432 5.50428 68.432H24.3151C27.513 68.432 29.019 66.926 29.019 63.7281C29.019 60.5302 27.513 59.0241 24.3151 59.0241C21.1172 59.0241 19.6112 57.5181 19.6112 54.3202V44.9124C19.6112 41.7145 21.1172 40.2084 24.3151 40.2084C27.513 40.2084 29.019 38.7024 29.019 35.5045C29.019 32.3066 30.5251 30.8006 33.723 30.8006C36.9208 30.8006 38.4269 29.2945 38.4269 26.0966C38.4269 22.8988 39.9329 21.3927 43.1308 21.3927C46.3287 21.3927 47.8347 19.8867 47.8347 16.6888C47.8347 13.4909 49.3408 11.9849 52.5387 11.9849H61.9465C65.1444 11.9849 66.6505 13.4909 66.6505 16.6888C66.6505 19.8867 68.1565 21.3927 71.3544 21.3927C74.5523 21.3927 76.0583 19.8867 76.0583 16.6888C76.0583 13.4909 77.5643 11.9849 80.7622 11.9849C83.9601 11.9849 85.4662 13.4909 85.4662 16.6888C85.4662 19.8867 83.9601 21.3927 80.7622 21.3927C77.5643 21.3927 76.0583 22.8988 76.0583 26.0966C76.0583 29.2945 74.5523 30.8006 71.3544 30.8006C68.1565 30.8006 66.6505 32.3066 66.6505 35.5045C66.6505 38.7024 65.1444 40.2084 61.9465 40.2084C58.7486 40.2084 57.2426 41.7145 57.2426 44.9124C57.2426 48.1102 55.7366 49.6163 52.5387 49.6163C49.3408 49.6163 47.8347 51.1223 47.8347 54.3202C47.8347 57.5181 46.3287 59.0241 43.1308 59.0241C39.9329 59.0241 38.4269 60.5302 38.4269 63.7281C38.4269 66.926 36.9208 68.432 33.723 68.432C30.5251 68.432 29.019 69.938 29.019 73.1359C29.019 76.3338 27.513 77.8399 24.3151 77.8399H5.50428C2.30639 77.8399 0.800354 76.3338 0.800354 73.1359ZM47.8299 44.9221C47.8299 41.7242 49.3359 40.2182 52.5338 40.2182C55.7317 40.2182 57.2377 38.7122 57.2377 35.5143C57.2377 32.3164 58.7437 30.8104 61.9416 30.8104C65.1395 30.8104 66.6456 29.3043 66.6456 26.1064C66.6456 22.9085 65.1395 21.4025 61.9416 21.4025H52.5338C49.3359 21.4025 47.8299 22.9085 47.8299 26.1064C47.8299 29.3043 46.3238 30.8104 43.1259 30.8104C39.928 30.8104 38.422 32.3164 38.422 35.5143C38.422 38.7122 36.916 40.2182 33.7181 40.2182C30.5202 40.2182 29.0141 41.7242 29.0141 44.9221C29.0141 48.12 30.5202 49.6261 33.7181 49.6261H43.1259C46.3238 49.6261 47.8299 48.12 47.8299 44.9221Z" fill="#BBBDBD"/>
<path d="M32.2952 93.3988V83.991C32.2952 80.7931 33.8013 79.287 36.9992 79.287C40.197 79.287 41.7031 77.781 41.7031 74.5831C41.7031 71.3852 43.2091 69.8792 46.407 69.8792C49.6049 69.8792 51.1109 68.3731 51.1109 65.1753V55.7674C51.1109 52.5695 52.617 51.0635 55.8149 51.0635H65.2178C68.4157 51.0635 69.9218 52.5695 69.9218 55.7674C69.9218 58.9653 68.4157 60.4713 65.2178 60.4713C62.0199 60.4713 60.5139 61.9774 60.5139 65.1753C60.5139 68.3731 59.0079 69.8792 55.81 69.8792C52.6121 69.8792 51.106 71.3852 51.106 74.5831C51.106 77.781 49.6 79.287 46.4021 79.287C43.2042 79.287 41.6982 80.7931 41.6982 83.991C41.6982 87.1889 43.2042 88.6949 46.4021 88.6949H55.81C59.0079 88.6949 60.5139 87.1889 60.5139 83.991C60.5139 80.7931 62.0199 79.287 65.2178 79.287C68.4157 79.287 69.9218 77.781 69.9218 74.5831C69.9218 71.3852 71.4278 69.8792 74.6257 69.8792C77.8236 69.8792 79.3296 68.3731 79.3296 65.1753V55.7674C79.3296 52.5695 80.8357 51.0635 84.0335 51.0635H102.844C106.042 51.0635 107.548 52.5695 107.548 55.7674C107.548 58.9653 106.042 60.4713 102.844 60.4713H93.4414C90.2435 60.4713 88.7375 61.9774 88.7375 65.1753C88.7375 68.3731 87.2314 69.8792 84.0335 69.8792C80.8357 69.8792 79.3296 71.3852 79.3296 74.5831C79.3296 77.781 77.8236 79.287 74.6257 79.287C71.4278 79.287 69.9218 80.7931 69.9218 83.991C69.9218 87.1889 71.4278 88.6949 74.6257 88.6949C77.8236 88.6949 79.3296 90.2009 79.3296 93.3988C79.3296 96.5967 77.8236 98.1028 74.6257 98.1028C71.4278 98.1028 69.9218 96.5967 69.9218 93.3988C69.9218 90.2009 68.4157 88.6949 65.2178 88.6949C62.0199 88.6949 60.5139 90.2009 60.5139 93.3988C60.5139 96.5967 59.0079 98.1028 55.81 98.1028H36.9992C33.8013 98.1028 32.2952 96.5967 32.2952 93.3988Z" fill="#BBBDBD"/>
<path d="M78.8795 42.5692V28.4623C78.8795 25.2644 80.3855 23.7584 83.5834 23.7584H85.9354C87.5343 23.7584 88.2874 23.0054 88.2874 21.4064C88.2874 19.8075 89.0404 19.0545 90.6393 19.0545H116.506C119.704 19.0545 121.21 17.5484 121.21 14.3506C121.21 11.1527 119.704 9.64662 116.506 9.64662H82.2974C79.0995 9.64662 77.5935 8.14059 77.5935 4.9427C77.5935 1.74481 79.0995 0.23877 82.2974 0.23877H125.909C129.107 0.23877 130.613 1.74481 130.613 4.9427V14.3506C130.613 17.5484 129.107 19.0545 125.909 19.0545C122.711 19.0545 121.205 20.5605 121.205 23.7584C121.205 26.9563 119.699 28.4623 116.501 28.4623C113.303 28.4623 111.797 29.9684 111.797 33.1663C111.797 36.3642 113.303 37.8702 116.501 37.8702C119.699 37.8702 121.205 39.3762 121.205 42.5741C121.205 45.772 119.699 47.278 116.501 47.278C113.303 47.278 111.797 45.772 111.797 42.5741C111.797 39.3762 110.291 37.8702 107.093 37.8702C103.895 37.8702 102.389 39.3762 102.389 42.5741C102.389 45.772 100.883 47.278 97.6854 47.278H83.5785C80.3807 47.278 78.8746 45.772 78.8746 42.5741L78.8795 42.5692ZM102.394 33.1614C102.394 29.9635 103.9 28.4574 107.098 28.4574H109.45C111.049 28.4574 111.802 27.7044 111.802 26.1055C111.802 24.5065 111.049 23.7535 109.45 23.7535H92.9913C89.7934 23.7535 88.2874 25.2596 88.2874 28.4574V33.1614C88.2874 36.3593 89.7934 37.8653 92.9913 37.8653H97.6952C100.893 37.8653 102.399 36.3593 102.399 33.1614H102.394Z" fill="#BBBDBD"/>
<path d="M92.8348 69.8837C92.8348 66.6858 94.3409 65.1798 97.5388 65.1798H106.942C110.14 65.1798 111.646 63.6737 111.646 60.4758C111.646 57.2779 113.152 55.7719 116.35 55.7719C119.547 55.7719 121.054 54.2659 121.054 51.068C121.054 47.8701 122.56 46.3641 125.757 46.3641C128.955 46.3641 130.461 44.858 130.461 41.6601C130.461 38.4622 128.955 36.9562 125.757 36.9562C122.56 36.9562 121.054 35.4502 121.054 32.2523C121.054 29.0544 122.56 27.5483 125.757 27.5483C128.955 27.5483 130.461 29.0544 130.461 32.2523C130.461 35.4502 131.967 36.9562 135.165 36.9562C138.363 36.9562 139.869 35.4502 139.869 32.2523C139.869 29.0544 141.375 27.5483 144.573 27.5483H163.384C166.582 27.5483 168.088 29.0544 168.088 32.2523V41.6601C168.088 44.858 166.582 46.3641 163.384 46.3641C160.186 46.3641 158.68 47.8701 158.68 51.068C158.68 54.2659 157.174 55.7719 153.976 55.7719C150.778 55.7719 149.272 57.2779 149.272 60.4758V69.8837C149.272 73.0816 147.766 74.5876 144.568 74.5876H135.16C131.963 74.5876 130.456 73.0816 130.456 69.8837C130.456 66.6858 131.963 65.1798 135.16 65.1798C138.358 65.1798 139.864 63.6737 139.864 60.4758C139.864 57.2779 141.37 55.7719 144.568 55.7719C147.766 55.7719 149.272 54.2659 149.272 51.068C149.272 47.8701 150.778 46.3641 153.976 46.3641C157.174 46.3641 158.68 44.858 158.68 41.6601C158.68 38.4622 157.174 36.9562 153.976 36.9562H144.568C141.37 36.9562 139.864 38.4622 139.864 41.6601C139.864 44.858 138.358 46.3641 135.16 46.3641C131.963 46.3641 130.456 47.8701 130.456 51.068C130.456 54.2659 128.95 55.7719 125.753 55.7719C122.555 55.7719 121.049 57.2779 121.049 60.4758V69.8837C121.049 73.0816 119.543 74.5876 116.345 74.5876H97.5339C94.336 74.5876 92.83 73.0816 92.83 69.8837H92.8348Z" fill="#BBBDBD"/>
<path d="M85.4515 93.3988C85.4515 90.2009 86.9576 88.6949 90.1555 88.6949H158.675C161.873 88.6949 163.379 87.1889 163.379 83.991C163.379 80.7931 161.873 79.287 158.675 79.287C155.477 79.287 153.971 77.781 153.971 74.5831V65.1753C153.971 61.9774 155.477 60.4713 158.675 60.4713C161.873 60.4713 163.379 58.9653 163.379 55.7674C163.379 52.5695 164.885 51.0635 168.083 51.0635H191.598C194.796 51.0635 196.302 52.5695 196.302 55.7674C196.302 58.9653 194.796 60.4713 191.598 60.4713H168.083C164.885 60.4713 163.379 61.9774 163.379 65.1753C163.379 68.3731 164.885 69.8792 168.083 69.8792H177.491C180.689 69.8792 182.195 71.3852 182.195 74.5831C182.195 77.781 180.689 79.287 177.491 79.287C174.293 79.287 172.787 80.7931 172.787 83.991C172.787 87.1889 171.281 88.6949 168.083 88.6949C164.885 88.6949 163.379 90.2009 163.379 93.3988C163.379 96.5967 161.873 98.1028 158.675 98.1028H90.1555C86.9576 98.1028 85.4515 96.5967 85.4515 93.3988Z" fill="#BBBDBD"/>
<path d="M173.638 42.5692V28.4623C173.638 25.2644 175.144 23.7584 178.342 23.7584H180.694C182.293 23.7584 183.046 23.0054 183.046 21.4064C183.046 19.8075 183.799 19.0545 185.398 19.0545H211.264C214.462 19.0545 215.968 17.5484 215.968 14.3506C215.968 11.1527 214.462 9.64662 211.264 9.64662H138.432C135.234 9.64662 133.728 8.14059 133.728 4.9427C133.728 1.74481 135.234 0.23877 138.432 0.23877H220.672C223.87 0.23877 225.376 1.74481 225.376 4.9427V14.3506C225.376 17.5484 223.87 19.0545 220.672 19.0545C217.474 19.0545 215.968 20.5605 215.968 23.7584C215.968 26.9563 214.462 28.4623 211.264 28.4623C208.066 28.4623 206.56 29.9684 206.56 33.1663C206.56 36.3642 208.066 37.8702 211.264 37.8702C214.462 37.8702 215.968 39.3762 215.968 42.5741C215.968 45.772 214.462 47.278 211.264 47.278C208.066 47.278 206.56 45.772 206.56 42.5741C206.56 39.3762 205.054 37.8702 201.856 37.8702C198.659 37.8702 197.153 39.3762 197.153 42.5741C197.153 45.772 195.646 47.278 192.449 47.278H178.342C175.144 47.278 173.638 45.772 173.638 42.5741V42.5692ZM197.153 33.1614C197.153 29.9635 198.659 28.4574 201.856 28.4574H204.208C205.807 28.4574 206.56 27.7044 206.56 26.1055C206.56 24.5065 205.807 23.7535 204.208 23.7535H187.75C184.552 23.7535 183.046 25.2596 183.046 28.4574V33.1614C183.046 36.3593 184.552 37.8653 187.75 37.8653H192.453C195.651 37.8653 197.157 36.3593 197.157 33.1614H197.153Z" fill="#BBBDBD"/>
<path d="M185.931 70.8612C185.931 67.6633 187.437 66.1573 190.635 66.1573H200.043C203.24 66.1573 204.746 64.6513 204.746 61.4534C204.746 58.2555 206.253 56.7494 209.45 56.7494C212.648 56.7494 214.154 55.2434 214.154 52.0455C214.154 48.8476 215.66 47.3416 218.858 47.3416C222.056 47.3416 223.562 45.8356 223.562 42.6377C223.562 39.4398 222.056 37.9337 218.858 37.9337C215.66 37.9337 214.154 36.4277 214.154 33.2298C214.154 30.0319 215.66 28.5259 218.858 28.5259C222.056 28.5259 223.562 30.0319 223.562 33.2298C223.562 36.4277 225.068 37.9337 228.266 37.9337C231.464 37.9337 232.97 36.4277 232.97 33.2298C232.97 30.0319 234.476 28.5259 237.674 28.5259H256.485C259.683 28.5259 261.189 30.0319 261.189 33.2298V42.6377C261.189 45.8356 259.683 47.3416 256.485 47.3416C253.287 47.3416 251.781 48.8476 251.781 52.0455C251.781 55.2434 250.275 56.7494 247.077 56.7494C243.879 56.7494 242.373 58.2555 242.373 61.4534V70.8612C242.373 74.0591 240.867 75.5652 237.669 75.5652H228.261C225.063 75.5652 223.557 74.0591 223.557 70.8612C223.557 67.6633 225.063 66.1573 228.261 66.1573C231.459 66.1573 232.965 64.6513 232.965 61.4534C232.965 58.2555 234.471 56.7494 237.669 56.7494C240.867 56.7494 242.373 55.2434 242.373 52.0455C242.373 48.8476 243.879 47.3416 247.077 47.3416C250.275 47.3416 251.781 45.8356 251.781 42.6377C251.781 39.4398 250.275 37.9337 247.077 37.9337H237.669C234.471 37.9337 232.965 39.4398 232.965 42.6377C232.965 45.8356 231.459 47.3416 228.261 47.3416C225.063 47.3416 223.557 48.8476 223.557 52.0455C223.557 55.2434 222.051 56.7494 218.853 56.7494C215.656 56.7494 214.149 58.2555 214.149 61.4534V70.8612C214.149 74.0591 212.643 75.5652 209.446 75.5652H190.635C187.437 75.5652 185.931 74.0591 185.931 70.8612Z" fill="#BBBDBD"/>
<path d="M175.535 86.5681C175.535 83.3702 177.041 81.8641 180.239 81.8641H255.849C259.047 81.8641 260.553 80.3581 260.553 77.1602C260.553 73.9623 259.047 72.4563 255.849 72.4563C252.651 72.4563 251.145 70.9502 251.145 67.7523V58.3445C251.145 55.1466 252.651 53.6406 255.849 53.6406C259.047 53.6406 260.553 52.1345 260.553 48.9366C260.553 45.7387 262.059 44.2327 265.257 44.2327C268.455 44.2327 269.961 42.7267 269.961 39.5288C269.961 36.3309 271.467 34.8248 274.665 34.8248C277.863 34.8248 279.369 33.3188 279.369 30.1209C279.369 26.923 280.875 25.417 284.073 25.417H293.48C296.678 25.417 298.184 26.923 298.184 30.1209C298.184 33.3188 299.69 34.8248 302.888 34.8248C306.086 34.8248 307.592 33.3188 307.592 30.1209C307.592 26.923 309.098 25.417 312.296 25.417C315.494 25.417 317 26.923 317 30.1209C317 33.3188 315.494 34.8248 312.296 34.8248C309.098 34.8248 307.592 36.3309 307.592 39.5288C307.592 42.7267 306.086 44.2327 302.888 44.2327C299.69 44.2327 298.184 45.7387 298.184 48.9366C298.184 52.1345 296.678 53.6406 293.48 53.6406C290.283 53.6406 288.776 55.1466 288.776 58.3445C288.776 61.5424 287.27 63.0484 284.073 63.0484C280.875 63.0484 279.369 64.5545 279.369 67.7523C279.369 70.9502 277.863 72.4563 274.665 72.4563C271.467 72.4563 269.961 73.9623 269.961 77.1602C269.961 80.3581 268.455 81.8641 265.257 81.8641C262.059 81.8641 260.553 83.3702 260.553 86.5681C260.553 89.7659 259.047 91.272 255.849 91.272H180.239C177.041 91.272 175.535 89.7659 175.535 86.5681ZM279.364 58.3543C279.364 55.1564 280.87 53.6503 284.068 53.6503C287.266 53.6503 288.772 52.1443 288.772 48.9464C288.772 45.7485 290.278 44.2425 293.475 44.2425C296.673 44.2425 298.179 42.7364 298.179 39.5386C298.179 36.3407 296.673 34.8346 293.475 34.8346H284.068C280.87 34.8346 279.364 36.3407 279.364 39.5386C279.364 42.7364 277.858 44.2425 274.66 44.2425C271.462 44.2425 269.956 45.7485 269.956 48.9464C269.956 52.1443 268.45 53.6503 265.252 53.6503C262.054 53.6503 260.548 55.1564 260.548 58.3543C260.548 61.5522 262.054 63.0582 265.252 63.0582H274.66C277.858 63.0582 279.364 61.5522 279.364 58.3543Z" fill="#BBBDBD"/>
</svg>
